HIERARCHY
ROOT Hips
{
	OFFSET 0.00 0.00 0.00
	CHANNELS 6 Xposition Yposition Zposition Xrotation Yrotation Zrotation
	JOINT Spine
	{
		OFFSET 0.00000 5.19526 0.00000
		CHANNELS 3 Xrotation Yrotation Zrotation
		JOINT Head
		{
			OFFSET 0.00000 15.65388 0.00000
			CHANNELS 3 Xrotation Yrotation Zrotation
			End Site
			{
				OFFSET 0.00000 4.52755 0.00000
			}
		}
		JOINT LeftShoulder
		{
			OFFSET 0.00000 10.32977 0.00000
			CHANNELS 3 Xrotation Yrotation Zrotation
			JOINT LeftArm
			{
				OFFSET 6.99601 0.00000 0.00000
				CHANNELS 3 Xrotation Yrotation Zrotation
				JOINT LeftForeArm
				{
					OFFSET 10.20930 0.00000 0.00000
					CHANNELS 3 Yrotation Zrotation Xrotation
					JOINT LeftHand
					{
						OFFSET 8.56316 0.00000 0.00000
						CHANNELS 3 Xrotation Yrotation Zrotation
						JOINT LeftHandThumb1
						{
							OFFSET 0.00000 0.00000 0.00000
							CHANNELS 3 Xrotation Zrotation Yrotation
							End Site
							{
								OFFSET 0.00000 0.00000 3.93700
							}
						}
						End Site
						{
							OFFSET 3.93700 0.00000 0.00000
						}
					}
				}
			}
		}
		JOINT RightShoulder
		{
			OFFSET 0.00000 10.32977 0.00000
			CHANNELS 3 Xrotation Yrotation Zrotation
			JOINT RightArm
			{
				OFFSET -6.99601 0.00000 0.00000
				CHANNELS 3 Xrotation Yrotation Zrotation
				JOINT RightForeArm
				{
					OFFSET -10.20930 0.00000 0.00000
					CHANNELS 3 Yrotation Zrotation Xrotation
					JOINT RightHand
					{
						OFFSET -8.56316 0.00000 0.00000
						CHANNELS 3 Xrotation Yrotation Zrotation
						JOINT RightHandThumb1
						{
							OFFSET 0.00000 0.00000 0.00000
							CHANNELS 3 Xrotation Zrotation Yrotation
							End Site
							{
								OFFSET 0.00000 0.00000 3.93700
							}
						}
						End Site
						{
							OFFSET -3.93700 0.00000 0.00000
						}
					}
				}
			}
		}
	}
	JOINT LeftUpLeg
	{
		OFFSET 3.35136 0.00000 0.00000
		CHANNELS 3 Xrotation Yrotation Zrotation
		JOINT LeftLeg
		{
			OFFSET 0.00000 -16.34683 0.00000
			CHANNELS 3 Xrotation Yrotation Zrotation
			JOINT LeftFoot
			{
				OFFSET 0.00000 -13.95979 0.00000
				CHANNELS 3 Xrotation Yrotation Zrotation
				JOINT LeftToeBase
				{
					OFFSET 0.00000 -1.33694 4.98954
					CHANNELS 3 Xrotation Yrotation Zrotation
					End Site
					{
						OFFSET 0.00000 0.00000 2.95275
					}
				}
			}
		}
	}
	JOINT RightUpLeg
	{
		OFFSET -3.35136 0.00000 0.00000
		CHANNELS 3 Xrotation Yrotation Zrotation
		JOINT RightLeg
		{
			OFFSET 0.00000 -16.34683 0.00000
			CHANNELS 3 Xrotation Yrotation Zrotation
			JOINT RightFoot
			{
				OFFSET 0.00000 -13.95979 0.00000
				CHANNELS 3 Xrotation Yrotation Zrotation
				JOINT RightToeBase
				{
					OFFSET 0.00000 -1.33694 4.98954
					CHANNELS 3 Xrotation Yrotation Zrotation
					End Site
					{
						OFFSET 0.00000 0.00000 2.95275
					}
				}
			}
		}
	}
}
MOTION
Frames: 20
Frame Time: 0.008333
 -6.4222 31.7932 -3.9920 6.4026 8.4049 2.1540 -4.7611 -7.2719 -2.8903 26.1941 8.9270 2.1077 11.6292 21.9095 13.3998 -36.0139 17.9787 -41.9420 -95.4105 0.0000 147.4171 -3.5884 -7.6707 -25.1654 33.1476 -0.0000 26.2537 2.8310 -16.9572 -17.7740 -1.9537 17.2320 67.8445 28.1816 0.0000 26.4341 2.6547 -14.9173 10.2106 32.8623 0.0000 -24.3270 -5.7063 -4.8315 -1.0556 6.4813 0.0000 0.0000 -13.2379 22.8397 -10.1424 7.3826 -0.0000 -0.0000 -3.1895 -2.3964 1.6311 2.6555 -0.0000 0.0000 -16.5277 -12.7829 -3.1511 3.3624 0.0000 -0.0000
 -6.4499 31.7918 -3.9912 6.3865 8.3658 2.1493 -4.7350 -7.2445 -2.8309 26.2517 8.9503 2.1127 11.6981 21.8881 13.3591 -35.7111 17.7532 -42.2532 -95.7569 0.0000 147.6193 -3.6642 -7.7666 -25.3559 33.1476 -0.0000 26.2537 2.9693 -17.0394 -17.5772 -1.9578 17.4533 68.6099 28.0265 0.0000 26.3635 2.6690 -14.8920 10.2810 32.8623 0.0000 -24.3270 -5.7642 -4.8025 -1.0012 6.6436 -0.0000 -0.0000 -13.3298 22.8583 -10.0771 7.5134 -0.0000 0.0000 -3.1828 -2.3564 1.6914 2.6627 -0.0000 0.0000 -16.5176 -12.7748 -3.1845 3.3160 -0.0000 -0.0000
 -6.4742 31.7906 -3.9913 6.3637 8.3616 2.1654 -4.6952 -7.2648 -2.7884 26.2842 8.9738 2.1090 11.7710 21.8876 13.2900 -35.3390 17.4425 -42.5153 -96.0844 0.0000 147.7302 -3.5828 -7.6030 -25.3256 33.1476 -0.0000 26.2537 2.9587 -17.0280 -17.4293 -1.8491 17.5124 69.3901 27.8650 0.0000 26.4462 2.7047 -14.7923 10.4830 32.8623 0.0000 -24.3270 -5.8233 -4.8512 -0.9777 6.8096 0.0000 0.0000 -13.3812 22.9202 -10.0988 7.5175 -0.0000 0.0000 -3.1649 -2.3584 1.7218 2.6611 0.0000 0.0000 -16.5249 -12.7469 -3.2242 3.3134 -0.0000 0.0000
 -6.5001 31.7889 -3.9872 6.3304 8.3441 2.1666 -4.6567 -7.3055 -2.7318 26.3198 9.0319 2.0721 11.8497 21.9341 13.2450 -34.9942 17.1540 -42.8686 -96.3763 0.0000 147.8165 -3.6180 -7.6353 -25.4493 33.1476 -0.0000 26.2537 2.9908 -17.0181 -17.2803 -1.7641 17.5909 70.1571 27.7273 0.0000 26.4016 2.7236 -14.7498 10.5835 32.8623 0.0000 -24.3270 -5.8646 -4.8675 -0.9219 7.0068 0.0000 0.0000 -13.4653 22.9204 -10.2521 7.5745 0.0000 -0.0000 -3.1328 -2.3522 1.7737 2.6681 -0.0000 -0.0000 -16.5319 -12.7299 -3.2449 3.2757 -0.0000 0.0000
 -6.5224 31.7871 -3.9903 6.3188 8.3097 2.1774 -4.6148 -7.3156 -2.6689 26.3255 9.0753 2.0079 11.9394 21.9612 13.1628 -34.6786 16.8842 -43.2101 -96.6512 0.0000 147.9905 -3.5179 -7.5645 -25.0320 33.1476 -0.0000 26.2537 2.9331 -17.0329 -17.2008 -1.5721 17.7981 70.9175 27.6385 0.0000 26.2608 2.7199 -14.8206 10.5212 32.8623 0.0000 -24.3270 -5.9594 -4.9216 -0.9121 7.2168 0.0000 0.0000 -13.5516 23.0572 -10.2058 7.5506 -0.0000 -0.0000 -3.1464 -2.3253 1.8037 2.6977 -0.0000 -0.0000 -16.5533 -12.7160 -3.2417 3.3497 -0.0000 0.0000
 -6.5470 31.7858 -3.9872 6.2830 8.2933 2.1730 -4.5684 -7.3733 -2.5940 26.3746 9.1338 1.9617 12.0828 22.0149 13.0382 -34.4384 16.6238 -43.5164 -96.8725 0.0000 147.8419 -3.4050 -7.3634 -24.9030 33.1476 -0.0000 26.2537 2.8511 -17.0128 -17.1176 -1.3712 17.9900 71.6576 27.5014 0.0000 26.2335 2.7363 -14.8731 10.5477 32.8623 0.0000 -24.3270 -6.0151 -4.9717 -0.8800 7.4090 0.0000 -0.0000 -13.6316 23.1613 -10.0976 7.5452 0.0000 -0.0000 -3.1064 -2.3196 1.8600 2.6901 -0.0000 -0.0000 -16.5422 -12.7022 -3.2507 3.3006 0.0000 0.0000
 -6.5689 31.7848 -3.9865 6.2619 8.2501 2.1918 -4.5351 -7.4075 -2.5360 26.4241 9.2315 1.8679 12.2013 22.0484 12.9170 -34.1365 16.3626 -43.8224 -97.0758 0.0000 147.6684 -3.3173 -7.1834 -24.8695 33.1476 -0.0000 26.2537 2.9847 -17.0216 -16.9971 -1.3865 17.9949 72.4287 27.4422 0.0000 26.3155 2.7351 -14.8851 10.5351 32.8623 0.0000 -24.3270 -6.0699 -4.8955 -0.8543 7.5832 0.0000 -0.0000 -13.6751 23.1322 -10.1951 7.5024 0.0000 -0.0000 -3.0911 -2.2908 1.8850 2.6904 -0.0000 -0.0000 -16.5459 -12.6729 -3.2780 3.3254 -0.0000 -0.0000
 -6.5925 31.7836 -3.9840 6.2345 8.2220 2.2054 -4.4946 -7.4334 -2.4807 26.4302 9.2656 1.8192 12.3954 22.0708 12.7720 -33.9541 16.1564 -44.1700 -97.3015 0.0000 147.6548 -3.2065 -6.9997 -24.6887 33.1476 -0.0000 26.2537 3.0658 -17.0982 -16.8736 -1.3530 18.1299 73.1340 27.3693 0.0000 26.3473 2.7555 -14.8115 10.6626 32.8623 0.0000 -24.3270 -6.1404 -4.8592 -0.8326 7.8073 -0.0000 0.0000 -13.7199 23.1590 -10.2298 7.3983 0.0000 -0.0000 -3.0767 -2.3392 1.9177 2.7190 -0.0000 0.0000 -16.5562 -12.6032 -3.2679 3.3065 0.0000 0.0000
 -6.6195 31.7813 -3.9781 6.1993 8.2225 2.1687 -4.4452 -7.5322 -2.3814 26.4476 9.3845 1.7436 12.3880 22.1218 12.7241 -33.5431 15.9125 -44.5545 -97.5155 0.0000 147.6297 -3.2126 -6.8758 -25.1194 33.1476 -0.0000 26.2537 3.1779 -17.1149 -16.7417 -1.2974 18.3021 73.7949 27.2849 0.0000 26.2550 2.7228 -14.7182 10.6022 32.8623 0.0000 -24.3270 -6.1941 -4.9176 -0.7465 8.0202 0.0000 0.0000 -13.8357 23.1896 -10.2522 7.4145 0.0000 -0.0000 -3.0369 -2.3764 2.0084 2.7313 0.0000 0.0000 -16.5563 -12.5666 -3.2336 3.3305 -0.0000 0.0000
 -6.6417 31.7801 -3.9814 6.1950 8.2134 2.1682 -4.4028 -7.6208 -2.2992 26.4072 9.4681 1.6641 12.4391 22.1015 12.5923 -33.2158 15.7868 -44.8399 -97.7891 0.0000 147.7647 -3.1776 -6.9342 -24.6947 33.1476 -0.0000 26.2537 3.2374 -17.1556 -16.6400 -1.2763 18.4685 74.4586 27.1771 0.0000 26.2320 2.7166 -14.6804 10.6048 32.8623 0.0000 -24.3270 -6.3197 -4.9323 -0.7257 8.2854 -0.0000 -0.0000 -13.9123 23.2631 -10.2832 7.3851 0.0000 0.0000 -3.0601 -2.3996 2.0464 2.7694 -0.0000 0.0000 -16.5625 -12.5220 -3.2395 3.2954 0.0000 -0.0000
 -6.6640 31.7785 -3.9820 6.1818 8.1646 2.1754 -4.3580 -7.6588 -2.2411 26.3626 9.5447 1.5841 12.5027 22.0649 12.4639 -32.9076 15.6456 -45.0909 -98.0623 0.0000 147.8123 -3.1904 -6.9355 -24.7788 33.1476 -0.0000 26.2537 3.2218 -17.2055 -16.5425 -1.1795 18.6948 75.0711 27.0294 0.0000 26.1394 2.7172 -14.5757 10.6799 32.8623 0.0000 -24.3270 -6.4151 -4.9694 -0.7039 8.5263 0.0000 0.0000 -14.0064 23.3593 -10.2968 7.4330 -0.0000 0.0000 -3.0607 -2.4097 2.0825 2.7829 0.0000 -0.0000 -16.5618 -12.4728 -3.2125 3.2748 0.0000 0.0000
 -6.6900 31.7752 -3.9798 6.1758 8.0990 2.1510 -4.3217 -7.7141 -2.1532 26.2966 9.6469 1.5315 12.6877 22.0859 12.3378 -32.6925 15.5970 -45.4245 -98.3273 0.0000 147.9458 -3.1858 -6.8889 -24.8933 33.1476 -0.0000 26.2537 3.1881 -17.2457 -16.4620 -1.0809 18.9427 75.6594 26.9130 0.0000 25.9056 2.7941 -14.6106 10.9504 32.8623 0.0000 -24.3270 -6.5240 -4.9413 -0.6348 8.7968 -0.0000 -0.0000 -14.1493 23.3854 -10.2737 7.4383 -0.0000 0.0000 -3.0643 -2.4243 2.1585 2.8031 -0.0000 -0.0000 -16.5719 -12.3964 -3.2231 3.2669 0.0000 -0.0000
 -6.7123 31.7731 -3.9779 6.1605 8.0604 2.1441 -4.2899 -7.7908 -2.0836 26.2809 9.7569 1.4406 12.7668 22.0797 12.2340 -32.4344 15.5554 -45.7548 -98.5827 0.0000 148.0457 -3.1606 -6.7875 -25.0424 33.1476 -0.0000 26.2537 3.2090 -17.2844 -16.3865 -1.0262 19.2258 76.2457 26.7216 0.0000 25.8830 2.7735 -14.5188 10.9368 32.8623 0.0000 -24.3270 -6.6346 -4.8984 -0.5952 9.0844 0.0000 0.0000 -14.2531 23.4128 -10.3554 7.3989 0.0000 0.0000 -3.0522 -2.4537 2.2088 2.8076 0.0000 0.0000 -16.5614 -12.3228 -3.2138 3.2401 -0.0000 0.0000
 -6.7333 31.7703 -3.9745 6.1371 8.0110 2.1452 -4.2427 -7.8815 -2.0078 26.2246 9.8636 1.3631 12.8509 22.0953 12.0979 -32.3517 15.6472 -46.0027 -98.9398 0.0000 147.9622 -3.0012 -6.4375 -25.0617 33.1476 -0.0000 26.2537 3.1226 -17.2844 -16.3677 -0.8712 19.5720 76.8027 26.5405 0.0000 25.7941 2.7949 -14.4404 11.0767 32.8623 0.0000 -24.3270 -6.7260 -4.9454 -0.5676 9.3563 -0.0000 -0.0000 -14.3845 23.5285 -10.3557 7.4039 0.0000 -0.0000 -3.0310 -2.4412 2.2504 2.8154 -0.0000 0.0000 -16.5788 -12.2840 -3.2082 3.2439 -0.0000 -0.0000
 -6.7585 31.7673 -3.9718 6.1153 7.9398 2.1365 -4.1972 -7.9294 -1.9517 26.1865 9.9878 1.3129 12.8895 22.0810 12.0264 -32.4288 15.9217 -46.2105 -99.5019 0.0000 148.2803 -2.8928 -6.2312 -24.9643 33.1476 -0.0000 26.2537 3.1561 -17.3131 -16.3356 -0.8219 19.9818 77.3776 26.3271 0.0000 25.5862 2.7797 -14.4284 11.0266 32.8623 0.0000 -24.3270 -6.8292 -4.9082 -0.5213 9.6532 -0.0000 -0.0000 -14.4558 23.5263 -10.2471 7.2562 0.0000 -0.0000 -3.0371 -2.4490 2.3117 2.8742 0.0000 -0.0000 -16.6081 -12.2090 -3.2030 3.2919 -0.0000 -0.0000
 -6.7810 31.7652 -3.9688 6.1059 7.8764 2.1393 -4.1775 -7.9806 -1.9043 26.1573 10.0998 1.2439 12.9527 22.0985 11.9405 -32.7032 16.2773 -46.4926 -100.0728 0.0000 148.9194 -3.0561 -6.6017 -24.9101 33.1476 -0.0000 26.2537 3.1241 -17.3116 -16.3267 -0.6565 20.4739 77.9114 26.1302 0.0000 25.2827 2.7341 -14.4541 10.8311 32.8623 0.0000 -24.3270 -6.9426 -4.8945 -0.4938 9.9521 0.0000 0.0000 -14.6054 23.6580 -10.3829 7.3980 -0.0000 0.0000 -3.0542 -2.4803 2.3514 2.9355 0.0000 0.0000 -16.6304 -12.1198 -3.1774 3.2531 0.0000 -0.0000
 -6.8058 31.7612 -3.9624 6.0637 7.7931 2.1084 -4.1061 -8.0168 -1.8121 26.0786 10.1495 1.1882 12.9002 22.0578 11.9077 -32.7568 16.6361 -46.6928 -100.6292 0.0000 149.1144 -3.2461 -6.9483 -25.1184 33.1476 -0.0000 26.2537 3.1324 -17.3446 -16.3248 -0.5685 20.8807 78.4328 25.9774 0.0000 25.2851 2.7294 -14.3584 10.8817 32.8623 0.0000 -24.3270 -7.0150 -4.9103 -0.4179 10.2468 -0.0000 -0.0000 -14.7653 23.7408 -10.3837 7.4268 -0.0000 0.0000 -3.0298 -2.4805 2.4363 2.9879 0.0000 0.0000 -16.6540 -12.0320 -3.1787 3.2514 0.0000 0.0000
 -6.8321 31.7579 -3.9573 6.0367 7.7111 2.0896 -4.0532 -8.0732 -1.7555 25.9974 10.2110 1.1494 12.7993 22.0081 11.9427 -32.7078 17.0616 -46.9121 -101.1322 0.0000 149.0887 -3.2451 -7.0444 -24.8122 33.1476 -0.0000 26.2537 3.1983 -17.3375 -16.2899 -0.5022 21.2403 78.9277 25.8741 0.0000 25.3281 2.7316 -14.3560 10.8924 32.8623 0.0000 -24.3270 -7.1191 -4.8592 -0.3592 10.5694 -0.0000 -0.0000 -14.8979 23.8112 -10.3990 7.4103 -0.0000 0.0000 -3.0389 -2.5406 2.5080 3.0816 -0.0000 -0.0000 -16.6890 -11.9021 -3.1761 3.2316 -0.0000 -0.0000
 -6.8579 31.7548 -3.9527 6.0361 7.6405 2.0566 -4.0340 -8.1428 -1.6825 25.9211 10.3390 1.0864 12.7817 22.0108 11.9690 -32.7118 17.4465 -47.1786 -101.5745 0.0000 149.2618 -3.1204 -6.9423 -24.2762 33.1476 -0.0000 26.2537 3.2128 -17.3220 -16.2625 -0.3705 21.5301 79.3784 25.8298 0.0000 25.3860 2.7620 -14.2911 11.0585 32.8623 0.0000 -24.3270 -7.2713 -4.8368 -0.2851 10.9421 0.0000 -0.0000 -15.0447 23.8669 -10.4817 7.4483 -0.0000 0.0000 -3.0583 -2.5323 2.5830 3.1348 -0.0000 0.0000 -16.7351 -11.8205 -3.2113 3.3606 0.0000 -0.0000
 -6.8855 31.7513 -3.9428 6.0014 7.5745 2.0118 -3.9825 -8.2116 -1.6002 25.8296 10.4082 1.0447 12.8538 22.0402 11.9085 -32.7590 17.7290 -47.3553 -102.0272 0.0000 149.3899 -3.1513 -7.0697 -24.1009 33.1476 -0.0000 26.2537 3.2500 -17.3387 -16.2346 -0.2710 21.8324 79.8112 25.7723 0.0000 25.3649 2.7634 -14.2917 11.0632 32.8623 0.0000 -24.3270 -7.3878 -4.7698 -0.1971 11.3249 0.0000 0.0000 -15.2182 23.9009 -10.4987 7.4717 -0.0000 0.0000 -3.0245 -2.5526 2.6860 3.1718 0.0000 -0.0000 -16.7549 -11.7303 -3.2505 3.3954 0.0000 -0.0000
